<svg class="sbn-chord-svg" viewBox="0 0 88 98" width="100%"><text x="1" y="28" font-size="10" fill="var(--clr-text-muted)">2</text><line x1="14" y1="16" x2="74" y2="16" stroke="var(--clr-text)" stroke-width="0.4" opacity="0.4"/><line x1="14" y1="32" x2="74" y2="32" stroke="var(--clr-text)" stroke-width="0.4" opacity="0.4"/><line x1="14" y1="48" x2="74" y2="48" stroke="var(--clr-text)" stroke-width="0.4" opacity="0.4"/><line x1="14" y1="64" x2="74" y2="64" stroke="var(--clr-text)" stroke-width="0.4" opacity="0.4"/><line x1="14" y1="80" x2="74" y2="80" stroke="var(--clr-text)" stroke-width="0.4" opacity="0.4"/><line x1="14" y1="16" x2="14" y2="85" stroke="var(--clr-text)" stroke-width="0.4" opacity="0.5"/><line x1="26" y1="16" x2="26" y2="85" stroke="var(--clr-text)" stroke-width="0.4" opacity="0.5"/><line x1="38" y1="16" x2="38" y2="85" stroke="var(--clr-text)" stroke-width="0.4" opacity="0.5"/><line x1="50" y1="16" x2="50" y2="85" stroke="var(--clr-text)" stroke-width="0.4" opacity="0.5"/><line x1="62" y1="16" x2="62" y2="85" stroke="var(--clr-text)" stroke-width="0.4" opacity="0.5"/><line x1="74" y1="16" x2="74" y2="85" stroke="var(--clr-text)" stroke-width="0.4" opacity="0.5"/><circle class="sbn-svg-dot" data-string="2" cx="26" cy="24" r="4.5" fill="#16a34a" opacity="1"/><text x="26" y="24" font-size="5.5" font-weight="800" text-anchor="middle" dominant-baseline="central" fill="#fff" style="pointer-events:none">1</text><circle class="sbn-svg-dot" data-string="3" cx="38" cy="40" r="4.5" fill="#6b7280" opacity="1"/><text x="38" y="40" font-size="5.5" font-weight="800" text-anchor="middle" dominant-baseline="central" fill="#fff" style="pointer-events:none">3</text><circle class="sbn-svg-dot" data-string="4" cx="50" cy="24" r="4.5" fill="#d97706" opacity="1"/><text x="50" y="24" font-size="5.5" font-weight="800" text-anchor="middle" dominant-baseline="central" fill="#fff" style="pointer-events:none">2</text><circle class="sbn-svg-dot" data-string="5" cx="62" cy="40" r="4.5" fill="#2563eb" opacity="1"/><text x="62" y="40" font-size="5.5" font-weight="800" text-anchor="middle" dominant-baseline="central" fill="#fff" style="pointer-events:none">4</text></svg>
